<?xml version="1.0" encoding="utf-8"?>
<!DOCTYPE svg PUBLIC "-//W3C//DTD SVG 20010904//EN" "http://www.w3.org/TR/2001/REC-SVG-20010904/DTD/svg10.dtd">
<svg version="1.0" xmlns="http://www.w3.org/2000/svg" width="70px" height="70px" viewBox="0 0 70 70" preserveAspectRatio="xMidYMid meet">
 <g fill="#f6f6f6">
  <path d="M0 35 l0 -35 35 0 35 0 0 35 0 35 -35 0 -35 0 0 -35z"/>
 </g>
 <g fill="#de0000">
  <path d="M17 58.5 c0 -4.9 0.2 -5.5 2.1 -5.5 1.1 0 3.2 -0.9 4.6 -2 1.4 -1.1 3.1 -2 3.8 -2 0.7 0 1.6 -0.7 1.9 -1.6 1.1 -2.7 0.6 -6.4 -0.7 -6.4 -1.8 0 -7.5 -5.7 -9.3 -9.2 -0.8 -1.5 -2.2 -2.8 -3 -2.8 -5.3 0 -10.8 -7.6 -10.2 -14.1 0.3 -3 0.6 -3.4 3.6 -3.7 2.7 -0.3 3.3 -0.7 3 -2.5 l-0.3 -2.2 21.5 0 21.5 0 -0.2 2.2 c-0.2 1.8 0.3 2.2 3 2.5 2.7 0.3 3.3 0.7 3.5 3.2 0.8 6.5 -4.9 14.6 -10.1 14.6 -0.8 0 -3.1 2.3 -5.1 5 -2 2.8 -4.8 5.6 -6.1 6.2 -4.3 1.9 -3.4 6.1 2.1 9.7 2.5 1.7 5.4 3.1 6.5 3.1 1.8 0 2 0.6 1.7 5.3 l-0.3 5.2 -16.7 0.3 -16.8 0.2 0 -5.5z m32 0 l0 -3.5 -15 0 -15 0 0 3.5 0 3.5 15 0 15 0 0 -3.5z m-6.5 -6.5 c-0.3 -0.5 -1.2 -1 -2 -1 -1.9 0 -4.5 -3.9 -4.5 -6.7 0 -1.6 -0.6 -2.3 -2 -2.3 -1.3 0 -2 0.7 -2 2 0 3.2 -2.2 7 -4.1 7 -1 0 -2.1 0.5 -2.4 1 -0.4 0.6 2.7 1 8.5 1 5.8 0 8.9 -0.4 8.5 -1z m0 -16.4 c3.1 -3.2 5.1 -6.7 7.4 -13 1.7 -4.8 3.1 -10 3.1 -11.7 l0 -2.9 -19 0 -19 0 0 2.3 c0 1.2 0.9 5.6 2.1 9.7 3.7 13.7 9.2 20 17.3 20 3.3 0 4.6 -0.7 8.1 -4.4z m-27.5 -15.3 c-1.5 -6.1 -2 -6.8 -4.4 -7.1 -2.2 -0.3 -2.6 0 -2.6 2.3 0 5.7 3.8 11 8.1 11.4 0.4 0.1 -0.1 -2.9 -1.1 -6.6z m39.5 5.7 c2.8 -1.1 5.5 -6.2 5.5 -10.5 0 -2.3 -0.4 -2.6 -2.6 -2.3 -2.3 0.3 -2.9 1.2 -4.5 6.3 -2.6 8.4 -2.7 8.1 1.6 6.5z"/>
  <path d="M30 25.5 c0 -1.9 -0.4 -3.5 -1 -3.5 -0.5 0 -1 -0.7 -1 -1.5 0 -0.8 0.9 -1.5 2 -1.5 1.1 0 2.5 -1.1 3.3 -2.6 l1.4 -2.6 1.6 2.6 c1 1.4 2.6 2.6 3.7 2.6 2.4 0 2.6 1.3 0.4 3.1 -0.9 0.7 -1.3 2.1 -1 3.4 0.7 2.9 -0.2 3.7 -2.4 2.2 -1.4 -0.8 -2.5 -0.8 -4.4 0.1 -2.5 1.1 -2.6 1.1 -2.6 -2.3z m7.3 -2.6 c0.3 -1 -0.3 -2.4 -1.2 -3.2 -1.4 -1.3 -1.8 -1.2 -3.4 0.3 -1.2 1.2 -1.5 2 -0.8 2.5 0.6 0.3 0.9 1 0.6 1.4 -0.2 0.5 0.6 0.9 1.9 0.9 1.5 0 2.6 -0.7 2.9 -1.9z"/>
 </g>
</svg>