<?xml version="1.0" encoding="utf-8"?>
<!DOCTYPE svg PUBLIC "-//W3C//DTD SVG 20010904//EN" "http://www.w3.org/TR/2001/REC-SVG-20010904/DTD/svg10.dtd">
<svg version="1.0" xmlns="http://www.w3.org/2000/svg" width="70px" height="70px" viewBox="0 0 70 70" preserveAspectRatio="xMidYMid meet">
 <g fill="#f6f6f6">
  <path d="M0 35 l0 -35 35 0 35 0 0 35 0 35 -35 0 -35 0 0 -35z"/>
 </g>
 <g fill="#de0000">
  <path d="M24.8 55 c-7 -4.6 -11.3 -8.2 -13.1 -10.9 -2.2 -3.3 -3.3 -4.1 -5.7 -4.1 -1.7 0 -3 -0.4 -3 -1 0 -0.5 1.2 -1 2.8 -1 2.6 0 2.7 -0.2 2.4 -3.7 -0.6 -7.6 5.1 -14.1 13.2 -15 l4.6 -0.6 0 -5.8 c0 -3.3 0.4 -5.9 0.9 -5.9 1.2 0 1.8 2 2.6 8.7 0.5 3.5 1.4 5.8 3.1 7.4 2.3 2.2 2.4 2.2 4.4 0.4 1.1 -1 2.3 -3.6 2.6 -5.7 0.8 -5 2.1 -5.7 2.9 -1.6 0.6 3.2 0.8 3.3 4.4 3 8.4 -0.8 15.1 5.8 15.1 14.7 0 3.7 0.2 4.1 2.5 4.1 1.4 0 2.5 0.5 2.5 1 0 0.6 -1.1 1 -2.6 1 -1.8 0 -4 1.6 -7.8 5.8 -3 3.1 -9 8 -13.4 10.8 l-8 5.2 -10.4 -6.8z m19.5 -1.4 c7.7 -5 13.7 -10.5 13.7 -12.7 0 -0.5 -2.1 -0.9 -4.7 -0.9 -4.4 0 -5 0.3 -7.2 3.5 -1.3 1.9 -2.7 3.5 -3.1 3.5 -0.8 0 -2 -10.8 -2 -17.9 0 -2.4 -0.2 -4.2 -0.4 -4 -0.2 0.2 -1.4 5.8 -2.5 12.4 -3.7 21.2 -4 21.2 -7.1 0.8 -2.4 -15.8 -4 -20.3 -4 -11.3 0 3 -0.3 7.2 -0.6 9.3 l-0.7 3.7 -6.8 0 c-3.8 0 -6.9 0.3 -6.9 0.6 0 2.2 5.7 7.5 13.4 12.5 5 3.2 9.4 5.9 9.8 5.9 0.4 0 4.5 -2.4 9.1 -5.4z m-6.4 -26.6 c0 -1.2 -0.2 -1.2 -1.3 0.2 -1.2 1.6 -1.4 1.6 -3.5 -0.5 l-2.3 -2.2 0.5 3 c0.3 1.7 1.1 6.4 1.8 10.5 l1.2 7.5 1.8 -8.5 c1 -4.7 1.8 -9.2 1.8 -10z m16.4 11 l5.7 0 0 -4 c0 -8.1 -5.3 -13.4 -12.8 -12.8 -3.7 0.3 -3.7 0.3 -4 5.3 -0.2 2.8 -0.1 7.4 0.3 10.3 l0.7 5.4 2.2 -2.1 c1.7 -1.6 3.5 -2.1 7.9 -2.1z m-29.9 -3.7 c0.3 -2.1 0.6 -5.9 0.6 -8.5 0 -4.5 -0.2 -4.8 -2.6 -4.8 -4.3 0 -9.1 2.9 -10.8 6.5 -1.6 3.4 -2.1 8.6 -0.9 9.8 0.3 0.4 3.4 0.7 6.8 0.7 l6.2 0 0.7 -3.7z"/>
 </g>
</svg>