<?xml version="1.0" encoding="utf-8"?>
<!DOCTYPE svg PUBLIC "-//W3C//DTD SVG 20010904//EN" "http://www.w3.org/TR/2001/REC-SVG-20010904/DTD/svg10.dtd">
<svg version="1.0" xmlns="http://www.w3.org/2000/svg" width="70px" height="70px" viewBox="0 0 70 70" preserveAspectRatio="xMidYMid meet">
 <g fill="#f6f6f6">
  <path d="M0 35 l0 -35 35 0 35 0 0 35 0 35 -35 0 -35 0 0 -35z"/>
 </g>
 <g fill="#de0000">
  <path d="M39.9 57.6 c-3.9 -1.4 -37.3 -28.5 -38.3 -31.2 -0.8 -2 1.7 -5.5 8.8 -12.2 7.1 -6.8 9.5 -6.5 11.1 1.2 0.3 1.6 2.1 4.4 4 6.3 l3.4 3.4 2.9 -2.1 c1.6 -1.2 3.5 -1.8 4.4 -1.5 0.9 0.4 3.5 3.7 5.6 7.3 2.2 3.7 5.5 8.1 7.4 9.9 3 2.8 5.2 3.7 13.9 5.7 2.7 0.6 4.5 3.7 5.1 8.6 0.3 2.2 -0.3 2.6 -5.7 4.2 -7.2 2 -17.6 2.2 -22.6 0.4z m20.4 -1.7 c3.7 -0.8 5.7 -1.7 5.7 -2.6 0 -1.1 -0.8 -1.2 -3.7 -0.6 -7.4 1.6 -17.5 0.9 -22.3 -1.5 -4.3 -2.1 -26.1 -19 -32.6 -25.3 -2.6 -2.5 -3.2 -2.8 -3.7 -1.5 -0.8 1.9 29.4 27.7 35.8 30.7 4.6 2.1 12.5 2.4 20.8 0.8z m4.6 -5.9 c1 -0.5 -0.6 -0.7 -4.1 -0.3 -7.1 0.7 -17.4 -1.2 -22.3 -4.2 -6.6 -3.9 -16.1 -14.4 -20.7 -22.6 -2.4 -4.3 -4.7 -7.9 -5.2 -7.9 -0.4 0 -0.5 0.8 -0.1 1.8 2.3 5.4 3.4 9 3.5 11.3 0 2.2 1.9 4.2 9.5 10.3 10.7 8.6 15.2 11.5 19.8 12.7 3.7 0.9 17.4 0.2 19.6 -1.1z m-0.9 -2.9 c0 -0.5 -1.9 -1.1 -4.1 -1.5 -5.6 -0.9 -15.5 -4.3 -20.2 -6.9 -2.1 -1.2 -5.3 -4.4 -7.1 -7.2 -1.9 -2.8 -4.6 -5.7 -6.1 -6.5 -2.8 -1.5 -7.5 -8.6 -7.5 -11.3 0 -2.1 -1.9 -3.2 -3.2 -1.9 -0.8 0.8 -0.2 2.9 2.1 7.4 7.1 13.7 18.5 24.6 28.8 27.4 5.5 1.5 17.3 1.8 17.3 0.5z m-19 -9.6 c-1.3 -1.4 -3 -2.5 -3.7 -2.5 -0.8 0 -1.2 -0.4 -0.9 -0.9 0.3 -0.5 -0.2 -1.2 -1.1 -1.5 -1.5 -0.6 -1.5 -0.8 -0.3 -1.6 1.3 -0.8 1.2 -1 -0.2 -1 -2.1 0 -2.4 -1.6 -0.5 -2.4 0.6 -0.3 -0.1 -0.3 -1.8 0 -1.6 0.3 -3.1 0.7 -3.3 0.9 -0.9 0.9 3.8 6.2 7.7 8.7 5.5 3.5 7.2 3.6 4.1 0.3z m-32.3 -15 c-1.5 -4.3 -3.3 -5.1 -5.1 -2.3 -0.8 1.4 -0.4 2.4 2.4 5.3 4 4.1 4.8 3.1 2.7 -3z m23.5 1.3 c-0.9 -0.9 -1.5 -0.9 -2.4 0 -0.9 0.9 -0.7 1.2 1.2 1.2 1.9 0 2.1 -0.3 1.2 -1.2z"/>
 </g>
</svg>