<svg version="1.0" xmlns="http://www.w3.org/2000/svg" width="70" height="70"><path d="M0 35V0h70v70H0V35z" fill="#f6f6f6"/><path d="M24.8 55c-7-4.6-11.3-8.2-13.1-10.9C9.5 40.8 8.4 40 6 40c-1.7 0-3-.4-3-1 0-.5 1.2-1 2.8-1 2.6 0 2.7-.2 2.4-3.7-.6-7.6 5.1-14.1 13.2-15l4.6-.6v-5.8c0-3.3.4-5.9.9-5.9 1.2 0 1.8 2 2.6 8.7.5 3.5 1.4 5.8 3.1 7.4 2.3 2.2 2.4 2.2 4.4.4 1.1-1 2.3-3.6 2.6-5.7.8-5 2.1-5.7 2.9-1.6.6 3.2.8 3.3 4.4 3C55.3 18.4 62 25 62 33.9c0 3.7.2 4.1 2.5 4.1 1.4 0 2.5.5 2.5 1 0 .6-1.1 1-2.6 1-1.8 0-4 1.6-7.8 5.8-3 3.1-9 8-13.4 10.8l-8 5.2L24.8 55zm19.5-1.4C52 48.6 58 43.1 58 40.9c0-.5-2.1-.9-4.7-.9-4.4 0-5 .3-7.2 3.5-1.3 1.9-2.7 3.5-3.1 3.5-.8 0-2-10.8-2-17.9 0-2.4-.2-4.2-.4-4-.2.2-1.4 5.8-2.5 12.4-3.7 21.2-4 21.2-7.1.8C28.6 22.5 27 18 27 27c0 3-.3 7.2-.6 9.3l-.7 3.7h-6.8c-3.8 0-6.9.3-6.9.6 0 2.2 5.7 7.5 13.4 12.5 5 3.2 9.4 5.9 9.8 5.9.4 0 4.5-2.4 9.1-5.4zM37.9 27c0-1.2-.2-1.2-1.3.2-1.2 1.6-1.4 1.6-3.5-.5l-2.3-2.2.5 3c.3 1.7 1.1 6.4 1.8 10.5l1.2 7.5 1.8-8.5c1-4.7 1.8-9.2 1.8-10zm16.4 11H60v-4c0-8.1-5.3-13.4-12.8-12.8-3.7.3-3.7.3-4 5.3-.2 2.8-.1 7.4.3 10.3l.7 5.4 2.2-2.1c1.7-1.6 3.5-2.1 7.9-2.1zm-29.9-3.7c.3-2.1.6-5.9.6-8.5 0-4.5-.2-4.8-2.6-4.8-4.3 0-9.1 2.9-10.8 6.5-1.6 3.4-2.1 8.6-.9 9.8.3.4 3.4.7 6.8.7h6.2l.7-3.7z" fill="#de0000"/></svg>