<svg version="1.0" xmlns="http://www.w3.org/2000/svg" width="70" height="70"><path d="M0 35V0h70v70H0V35z" fill="#f6f6f6"/><path d="M39.9 57.6C36 56.2 2.6 29.1 1.6 26.4c-.8-2 1.7-5.5 8.8-12.2 7.1-6.8 9.5-6.5 11.1 1.2.3 1.6 2.1 4.4 4 6.3l3.4 3.4 2.9-2.1c1.6-1.2 3.5-1.8 4.4-1.5.9.4 3.5 3.7 5.6 7.3 2.2 3.7 5.5 8.1 7.4 9.9 3 2.8 5.2 3.7 13.9 5.7 2.7.6 4.5 3.7 5.1 8.6.3 2.2-.3 2.6-5.7 4.2-7.2 2-17.6 2.2-22.6.4zm20.4-1.7c3.7-.8 5.7-1.7 5.7-2.6 0-1.1-.8-1.2-3.7-.6-7.4 1.6-17.5.9-22.3-1.5-4.3-2.1-26.1-19-32.6-25.3-2.6-2.5-3.2-2.8-3.7-1.5-.8 1.9 29.4 27.7 35.8 30.7 4.6 2.1 12.5 2.4 20.8.8zm4.6-5.9c1-.5-.6-.7-4.1-.3-7.1.7-17.4-1.2-22.3-4.2-6.6-3.9-16.1-14.4-20.7-22.6-2.4-4.3-4.7-7.9-5.2-7.9-.4 0-.5.8-.1 1.8 2.3 5.4 3.4 9 3.5 11.3 0 2.2 1.9 4.2 9.5 10.3C36.2 47 40.7 49.9 45.3 51.1c3.7.9 17.4.2 19.6-1.1zm-.9-2.9c0-.5-1.9-1.1-4.1-1.5-5.6-.9-15.5-4.3-20.2-6.9-2.1-1.2-5.3-4.4-7.1-7.2-1.9-2.8-4.6-5.7-6.1-6.5-2.8-1.5-7.5-8.6-7.5-11.3 0-2.1-1.9-3.2-3.2-1.9-.8.8-.2 2.9 2.1 7.4C25 32.9 36.4 43.8 46.7 46.6c5.5 1.5 17.3 1.8 17.3.5zm-19-9.6c-1.3-1.4-3-2.5-3.7-2.5-.8 0-1.2-.4-.9-.9.3-.5-.2-1.2-1.1-1.5-1.5-.6-1.5-.8-.3-1.6 1.3-.8 1.2-1-.2-1-2.1 0-2.4-1.6-.5-2.4.6-.3-.1-.3-1.8 0-1.6.3-3.1.7-3.3.9-.9.9 3.8 6.2 7.7 8.7 5.5 3.5 7.2 3.6 4.1.3zm-32.3-15c-1.5-4.3-3.3-5.1-5.1-2.3-.8 1.4-.4 2.4 2.4 5.3 4 4.1 4.8 3.1 2.7-3zm23.5 1.3c-.9-.9-1.5-.9-2.4 0-.9.9-.7 1.2 1.2 1.2s2.1-.3 1.2-1.2z" fill="#de0000"/></svg>